<svg width="174" height="26" viewBox="0 0 174 26" fill="none" xmlns="http://www.w3.org/2000/svg">
<path d="M0 25.3683V2.06137H5.75645V25.3683H0Z" fill="url(#paint0_linear_67_116)"/>
<path d="M21.0157 25.9335C18.6254 25.9335 16.564 25.4791 14.8316 24.5703C13.0992 23.6615 11.7725 22.4314 10.8514 20.8798C9.95232 19.306 9.50276 17.555 9.50276 15.6266C9.50276 13.676 9.96328 11.925 10.8843 10.3734C11.8273 8.82181 13.1759 7.60272 14.9303 6.7161C16.7065 5.82949 18.7789 5.38618 21.1472 5.38618C22.8358 5.38618 24.2831 5.58567 25.4892 5.98465C26.7173 6.38362 27.7918 6.91559 28.7129 7.58055V12.2353C27.8795 11.5703 26.9256 11.0384 25.8511 10.6394C24.7985 10.2404 23.6362 10.0409 22.3643 10.0409C20.917 10.0409 19.656 10.2847 18.5815 10.7724C17.507 11.2378 16.6846 11.8917 16.1145 12.734C15.5662 13.5763 15.2921 14.5405 15.2921 15.6266C15.2921 16.6905 15.5662 17.6547 16.1145 18.5192C16.6627 19.3615 17.4741 20.0375 18.5486 20.5473C19.6451 21.0349 20.9499 21.2788 22.463 21.2788C23.6472 21.2788 24.7875 21.0793 25.884 20.6803C26.9804 20.2813 27.9453 19.7826 28.7786 19.1841V23.6061C27.6822 24.3598 26.487 24.9361 25.1932 25.335C23.9213 25.734 22.5288 25.9335 21.0157 25.9335Z" fill="url(#paint1_linear_67_116)"/>
<path d="M42.4998 25.9335C40.2192 25.9335 38.2236 25.4791 36.5131 24.5703C34.8245 23.6615 33.5197 22.4203 32.5987 20.8465C31.6996 19.2728 31.2501 17.5217 31.2501 15.5933C31.2501 13.6428 31.6996 11.9028 32.5987 10.3734C33.5197 8.82181 34.8245 7.60272 36.5131 6.7161C38.2236 5.82949 40.2192 5.38618 42.4998 5.38618C44.7805 5.38618 46.7651 5.82949 48.4536 6.7161C50.1422 7.58055 51.436 8.78857 52.3351 10.3401C53.2561 11.8917 53.7167 13.6428 53.7167 15.5933C53.7167 17.5217 53.2561 19.2728 52.3351 20.8465C51.436 22.4203 50.1312 23.6615 48.4207 24.5703C46.7322 25.4791 44.7585 25.9335 42.4998 25.9335ZM42.4998 21.445C43.6401 21.445 44.6269 21.2012 45.4603 20.7135C46.3155 20.2037 46.9734 19.5166 47.4339 18.6522C47.8944 17.7655 48.1247 16.7681 48.1247 15.6598C48.1247 14.5294 47.8944 13.532 47.4339 12.6675C46.9734 11.7809 46.3155 11.1048 45.4603 10.6394C44.6269 10.1517 43.6401 9.90792 42.4998 9.90792C41.3595 9.90792 40.3617 10.1517 39.5065 10.6394C38.6512 11.1048 37.9933 11.7809 37.5328 12.6675C37.0723 13.532 36.842 14.5294 36.842 15.6598C36.842 16.7681 37.0723 17.7655 37.5328 18.6522C37.9933 19.5166 38.6512 20.2037 39.5065 20.7135C40.3617 21.2012 41.3595 21.445 42.4998 21.445Z" fill="url(#paint2_linear_67_116)"/>
<path d="M72.4279 15.7928C72.4279 14.5072 72.2635 13.4544 71.9345 12.6343C71.6056 11.792 71.1012 11.1713 70.4214 10.7724C69.7635 10.3512 68.9193 10.1407 67.8886 10.1407C66.814 10.1407 65.893 10.3734 65.1255 10.8389C64.3799 11.2822 63.8097 11.925 63.415 12.7673C63.0422 13.5874 62.8558 14.5516 62.8558 15.6598L62.0992 13.1662C62.4501 11.393 62.9764 9.94117 63.6781 8.81073C64.4018 7.65813 65.3009 6.80476 66.3754 6.25063C67.45 5.67433 68.7328 5.38618 70.224 5.38618C71.8907 5.38618 73.2941 5.74083 74.4345 6.45012C75.5967 7.13724 76.4739 8.16793 77.066 9.54219C77.68 10.9164 77.987 12.5899 77.987 14.5626V25.3683H72.4279V15.7928ZM57.3296 25.3683V6.18413H62.8229V12.1023L62.8558 12.5013V25.3683H57.3296Z" fill="url(#paint3_linear_67_116)"/>
<path d="M90.7704 25.9335C89.0819 25.9335 87.4482 25.7118 85.8692 25.2685C84.2903 24.8252 82.8649 24.1824 81.593 23.3401V19.0179C82.7553 19.9267 84.1039 20.636 85.639 21.1458C87.196 21.6334 88.7529 21.8772 90.3099 21.8772C91.4941 21.8772 92.3822 21.6999 92.9743 21.3453C93.5884 20.9906 93.8954 20.4919 93.8954 19.8491C93.8954 19.4058 93.7419 19.0068 93.4349 18.6522C93.1498 18.2975 92.5577 18.0094 91.6586 17.7877L87.4482 16.7903C85.4087 16.2805 83.9395 15.5712 83.0404 14.6624C82.1413 13.7536 81.6917 12.6121 81.6917 11.2378C81.6917 10.0852 82.0426 9.06563 82.7443 8.17902C83.468 7.2924 84.4987 6.60527 85.8363 6.11764C87.196 5.63 88.7968 5.38618 90.6389 5.38618C92.2836 5.38618 93.7748 5.58567 95.1125 5.98465C96.4721 6.36146 97.6343 6.86018 98.5992 7.48081V11.6701C97.6124 10.9829 96.483 10.4399 95.2111 10.0409C93.9392 9.61977 92.5906 9.4092 91.1652 9.4092C89.8933 9.4092 88.9284 9.57544 88.2705 9.90792C87.6346 10.2182 87.3166 10.6615 87.3166 11.2378C87.3166 11.7255 87.5249 12.1134 87.9416 12.4015C88.3801 12.6675 89.1148 12.9224 90.1455 13.1662L93.9283 13.9642C95.8142 14.3632 97.2396 15.017 98.2045 15.9258C99.1694 16.8124 99.6518 18.0648 99.6518 19.6829C99.6518 20.9241 99.301 22.0213 98.5992 22.9744C97.8975 23.9054 96.8778 24.6368 95.5401 25.1688C94.2243 25.6786 92.6344 25.9335 90.7704 25.9335Z" fill="url(#paint4_linear_67_116)"/>
<path d="M112.61 26C110.68 26 108.849 25.7451 107.116 25.2353C105.384 24.7255 103.86 24.0162 102.544 23.1074V18.3862C103.487 19.029 104.463 19.5831 105.472 20.0486C106.48 20.5141 107.544 20.8798 108.662 21.1458C109.803 21.3896 110.954 21.5115 112.116 21.5115C113.717 21.5115 114.912 21.2899 115.702 20.8465C116.513 20.3811 116.919 19.705 116.919 18.8184C116.919 18.3751 116.809 17.9983 116.59 17.688C116.393 17.3555 116.042 17.0673 115.537 16.8235C115.033 16.5575 114.331 16.3137 113.432 16.0921L109.222 15.1611C106.897 14.6513 105.187 13.8423 104.09 12.734C103.016 11.6257 102.478 10.2293 102.478 8.54475C102.478 7.14834 102.873 5.91816 103.663 4.85422C104.474 3.79028 105.658 2.95908 107.215 2.36061C108.772 1.76215 110.658 1.46291 112.873 1.46291C114.825 1.46291 116.535 1.69565 118.004 2.16113C119.496 2.6266 120.746 3.2029 121.754 3.89002V8.47826C120.724 7.7468 119.485 7.15942 118.037 6.71611C116.612 6.2728 115.055 6.05115 113.366 6.05115C111.744 6.05115 110.505 6.26172 109.649 6.68286C108.816 7.10401 108.399 7.69139 108.399 8.44501C108.399 8.99915 108.63 9.45354 109.09 9.80818C109.573 10.1628 110.395 10.4731 111.557 10.7391L115.965 11.7033C118.377 12.2353 120.131 13.0443 121.228 14.1304C122.346 15.1944 122.906 16.6351 122.906 18.4527C122.906 19.9599 122.478 21.2899 121.623 22.4425C120.789 23.5729 119.594 24.4484 118.037 25.0691C116.502 25.6897 114.693 26 112.61 26Z" fill="url(#paint5_linear_67_116)"/>
<path d="M126.588 25.3683V6.81586H132.18V25.3683H126.588ZM129.417 5.31969C128.781 5.31969 128.221 5.20886 127.739 4.98721C127.256 4.74339 126.873 4.42199 126.588 4.02302C126.324 3.60188 126.193 3.1364 126.193 2.6266C126.193 2.13896 126.324 1.69565 126.588 1.29667C126.873 0.897697 127.256 0.587382 127.739 0.365728C128.243 0.121909 128.802 0 129.417 0C130.009 0 130.546 0.121909 131.028 0.365728C131.511 0.587382 131.884 0.897697 132.147 1.29667C132.432 1.69565 132.574 2.13896 132.574 2.6266C132.574 3.1364 132.443 3.60188 132.18 4.02302C131.916 4.42199 131.533 4.74339 131.028 4.98721C130.546 5.20886 130.009 5.31969 129.417 5.31969Z" fill="url(#paint6_linear_67_116)"/>
<path d="M140.317 25.3683V2.59335L145.909 1.46291V25.3683H140.317ZM135.021 10.3734V6.18414H151.6V10.3734H135.021Z" fill="url(#paint7_linear_67_116)"/>
<path d="M164.32 25.9335C161.974 25.9335 159.913 25.5013 158.136 24.6368C156.382 23.7502 155.022 22.52 154.057 20.9463C153.114 19.3725 152.643 17.5661 152.643 15.5269C152.643 13.6206 153.082 11.9028 153.959 10.3734C154.836 8.82182 156.086 7.60273 157.709 6.71611C159.353 5.8295 161.283 5.38619 163.498 5.38619C165.603 5.38619 167.39 5.75192 168.86 6.48338C170.329 7.21483 171.436 8.27877 172.182 9.67519C172.95 11.0494 173.333 12.6897 173.333 14.5959V16.6573H155.373V13.665H169.32L168.662 14.8619V14.2967C168.662 13.3214 168.465 12.5013 168.07 11.8363C167.676 11.1492 167.094 10.6283 166.327 10.2737C165.581 9.91901 164.682 9.74169 163.63 9.74169C162.445 9.74169 161.437 9.97442 160.603 10.4399C159.792 10.8832 159.178 11.5038 158.761 12.3018C158.345 13.0997 158.136 14.0085 158.136 15.0281L158.038 15.3274C158.06 16.5686 158.367 17.6547 158.959 18.5857C159.551 19.4945 160.406 20.1927 161.524 20.6803C162.643 21.1679 163.991 21.4118 165.57 21.4118C166.952 21.4118 168.246 21.2123 169.452 20.8133C170.658 20.3922 171.743 19.8159 172.708 19.0844V23.4731C171.678 24.2268 170.417 24.8252 168.926 25.2685C167.456 25.7118 165.921 25.9335 164.32 25.9335Z" fill="url(#paint8_linear_67_116)"/>
<defs>
<linearGradient id="paint0_linear_67_116" x1="115.917" y1="26" x2="-15.4175" y2="-16.9447" gradientUnits="userSpaceOnUse">
<stop stop-color="#DB2C1D"/>
<stop offset="1" stop-color="#1501A1"/>
</linearGradient>
<linearGradient id="paint1_linear_67_116" x1="115.917" y1="26" x2="-15.4175" y2="-16.9447" gradientUnits="userSpaceOnUse">
<stop stop-color="#DB2C1D"/>
<stop offset="1" stop-color="#1501A1"/>
</linearGradient>
<linearGradient id="paint2_linear_67_116" x1="115.917" y1="26" x2="-15.4175" y2="-16.9447" gradientUnits="userSpaceOnUse">
<stop stop-color="#DB2C1D"/>
<stop offset="1" stop-color="#1501A1"/>
</linearGradient>
<linearGradient id="paint3_linear_67_116" x1="115.917" y1="26" x2="-15.4175" y2="-16.9447" gradientUnits="userSpaceOnUse">
<stop stop-color="#DB2C1D"/>
<stop offset="1" stop-color="#1501A1"/>
</linearGradient>
<linearGradient id="paint4_linear_67_116" x1="115.917" y1="26" x2="-15.4175" y2="-16.9447" gradientUnits="userSpaceOnUse">
<stop stop-color="#DB2C1D"/>
<stop offset="1" stop-color="#1501A1"/>
</linearGradient>
<linearGradient id="paint5_linear_67_116" x1="102.478" y1="0" x2="168.903" y2="34.5233" gradientUnits="userSpaceOnUse">
<stop stop-color="#1501A1"/>
<stop offset="1" stop-color="#051341"/>
</linearGradient>
<linearGradient id="paint6_linear_67_116" x1="102.478" y1="0" x2="168.903" y2="34.5233" gradientUnits="userSpaceOnUse">
<stop stop-color="#1501A1"/>
<stop offset="1" stop-color="#051341"/>
</linearGradient>
<linearGradient id="paint7_linear_67_116" x1="102.478" y1="0" x2="168.903" y2="34.5233" gradientUnits="userSpaceOnUse">
<stop stop-color="#1501A1"/>
<stop offset="1" stop-color="#051341"/>
</linearGradient>
<linearGradient id="paint8_linear_67_116" x1="102.478" y1="0" x2="168.903" y2="34.5233" gradientUnits="userSpaceOnUse">
<stop stop-color="#1501A1"/>
<stop offset="1" stop-color="#051341"/>
</linearGradient>
</defs>
</svg>
