<svg width="366" height="54" viewBox="0 0 366 54" fill="none" xmlns="http://www.w3.org/2000/svg">
<path d="M0 52.6879V4.28125H12.155V52.6879H0Z" fill="url(#paint0_linear_33_23)"/>
<path d="M44.3754 53.8618C39.3282 53.8618 34.9755 52.9181 31.3175 51.0306C27.6594 49.1431 24.858 46.5882 22.9132 43.3657C21.0147 40.0971 20.0655 36.4603 20.0655 32.4552C20.0655 28.404 21.0379 24.7672 22.9826 21.5447C24.9737 18.3222 27.8215 15.7902 31.5258 13.9488C35.2765 12.1073 39.6523 11.1866 44.6532 11.1866C48.2187 11.1866 51.2748 11.6009 53.8215 12.4296C56.4146 13.2582 58.6835 14.3631 60.6283 15.7442V25.4117C58.8687 24.0306 56.8545 22.9258 54.5855 22.0971C52.3629 21.2685 49.9088 20.8541 47.2231 20.8541C44.167 20.8541 41.5045 21.3605 39.2356 22.3733C36.9666 23.3401 35.2302 24.6981 34.0263 26.4475C32.8687 28.1969 32.2899 30.1994 32.2899 32.4552C32.2899 34.6649 32.8687 36.6674 34.0263 38.4628C35.1839 40.2122 36.8972 41.6163 39.1661 42.6751C41.4813 43.6879 44.2365 44.1943 47.4315 44.1943C49.9319 44.1943 52.3398 43.78 54.655 42.9513C56.9702 42.1227 59.0076 41.0869 60.7672 39.8439V49.0281C58.452 50.5933 55.9284 51.7902 53.1964 52.6189C50.5107 53.4475 47.5704 53.8618 44.3754 53.8618Z" fill="url(#paint1_linear_33_23)"/>
<path d="M89.74 53.8618C84.9243 53.8618 80.7106 52.9181 77.0988 51.0306C73.5334 49.1431 70.7782 46.5651 68.8334 43.2966C66.9349 40.0281 65.9857 36.3912 65.9857 32.3861C65.9857 28.335 66.9349 24.7211 68.8334 21.5447C70.7782 18.3222 73.5334 15.7902 77.0988 13.9488C80.7106 12.1073 84.9243 11.1866 89.74 11.1866C94.5557 11.1866 98.7462 12.1073 102.312 13.9488C105.877 15.7442 108.609 18.2531 110.508 21.4756C112.452 24.6981 113.425 28.335 113.425 32.3861C113.425 36.3912 112.452 40.0281 110.508 43.2966C108.609 46.5651 105.854 49.1431 102.242 51.0306C98.6768 52.9181 94.5094 53.8618 89.74 53.8618ZM89.74 44.5396C92.1478 44.5396 94.2315 44.0332 95.9911 43.0204C97.797 41.9616 99.1861 40.5344 100.159 38.7391C101.131 36.8976 101.617 34.826 101.617 32.5242C101.617 30.1764 101.131 28.1048 100.159 26.3094C99.1861 24.468 97.797 23.0639 95.9911 22.0971C94.2315 21.0843 92.1478 20.5779 89.74 20.5779C87.3321 20.5779 85.2253 21.0843 83.4194 22.0971C81.6135 23.0639 80.2244 24.468 79.252 26.3094C78.2796 28.1048 77.7934 30.1764 77.7934 32.5242C77.7934 34.826 78.2796 36.8976 79.252 38.7391C80.2244 40.5344 81.6135 41.9616 83.4194 43.0204C85.2253 44.0332 87.3321 44.5396 89.74 44.5396Z" fill="url(#paint2_linear_33_23)"/>
<path d="M152.934 32.8004C152.934 30.1304 152.587 27.9437 151.893 26.2403C151.198 24.491 150.133 23.202 148.698 22.3733C147.308 21.4986 145.526 21.0613 143.349 21.0613C141.08 21.0613 139.136 21.5447 137.515 22.5114C135.941 23.4321 134.737 24.7672 133.903 26.5165C133.116 28.2199 132.722 30.2224 132.722 32.5242L131.125 27.3452C131.866 23.6623 132.977 20.647 134.459 18.2992C135.987 15.9053 137.885 14.1329 140.154 12.982C142.423 11.7851 145.132 11.1866 148.281 11.1866C151.8 11.1866 154.763 11.9232 157.171 13.3963C159.625 14.8234 161.478 16.9641 162.728 19.8183C164.024 22.6726 164.673 26.1483 164.673 30.2454V52.6879H152.934V32.8004ZM121.054 52.6879V12.8439H132.653V25.1355L132.722 25.9641V52.6879H121.054Z" fill="url(#paint3_linear_33_23)"/>
<path d="M191.665 53.8618C188.1 53.8618 184.65 53.4015 181.316 52.4807C177.982 51.56 174.972 50.225 172.287 48.4756V39.4986C174.741 41.3861 177.589 42.8593 180.83 43.9181C184.118 44.9309 187.405 45.4373 190.693 45.4373C193.193 45.4373 195.069 45.069 196.319 44.3324C197.615 43.5958 198.264 42.56 198.264 41.225C198.264 40.3043 197.94 39.4756 197.291 38.7391C196.689 38.0025 195.439 37.404 193.541 36.9437L184.65 34.872C180.344 33.8132 177.241 32.3401 175.343 30.4526C173.444 28.5651 172.495 26.1943 172.495 23.3401C172.495 20.9462 173.236 18.8286 174.718 16.9871C176.246 15.1457 178.422 13.7186 181.247 12.7058C184.118 11.693 187.498 11.1866 191.387 11.1866C194.86 11.1866 198.009 11.6009 200.834 12.4296C203.704 13.2122 206.159 14.248 208.196 15.537V24.2378C206.112 22.8107 203.728 21.6828 201.042 20.8541C198.356 19.9795 195.509 19.5421 192.499 19.5421C189.813 19.5421 187.776 19.8874 186.387 20.5779C185.044 21.2224 184.372 22.1431 184.372 23.3401C184.372 24.3529 184.812 25.1585 185.692 25.757C186.618 26.3094 188.169 26.8388 190.346 27.3452L198.333 29.0025C202.315 29.8311 205.325 31.1892 207.363 33.0766C209.4 34.9181 210.419 37.5191 210.419 40.8797C210.419 43.4577 209.678 45.7365 208.196 47.716C206.714 49.6495 204.561 51.1687 201.737 52.2736C198.958 53.3324 195.601 53.8618 191.665 53.8618Z" fill="url(#paint4_linear_33_23)"/>
<path d="M237.78 54C233.705 54 229.839 53.4706 226.181 52.4118C222.522 51.3529 219.304 49.8798 216.526 47.9923V38.1867C218.517 39.5217 220.578 40.6726 222.708 41.6394C224.838 42.6061 227.083 43.3657 229.445 43.9182C231.853 44.4246 234.284 44.6778 236.738 44.6778C240.118 44.6778 242.642 44.2174 244.309 43.2967C246.022 42.3299 246.879 40.9258 246.879 39.0844C246.879 38.1637 246.647 37.3811 246.184 36.7366C245.767 36.046 245.026 35.4476 243.961 34.9412C242.896 34.3888 241.415 33.8824 239.516 33.422L230.626 31.4885C225.717 30.4297 222.106 28.7494 219.79 26.4476C217.522 24.1458 216.387 21.2455 216.387 17.7468C216.387 14.8465 217.221 12.2916 218.888 10.0818C220.601 7.87212 223.101 6.14578 226.389 4.90281C229.677 3.65984 233.659 3.03836 238.335 3.03836C242.457 3.03836 246.068 3.52174 249.171 4.48849C252.319 5.45524 254.959 6.65217 257.089 8.07928V17.6087C254.913 16.0895 252.296 14.8696 249.24 13.9488C246.23 13.0281 242.943 12.5678 239.377 12.5678C235.951 12.5678 233.335 13.0051 231.529 13.8798C229.769 14.7545 228.889 15.9744 228.889 17.5396C228.889 18.6905 229.376 19.6343 230.348 20.3708C231.367 21.1074 233.103 21.7519 235.557 22.3043L244.864 24.3069C249.958 25.4118 253.662 27.0921 255.978 29.3478C258.339 31.5575 259.52 34.5499 259.52 38.3248C259.52 41.4552 258.617 44.2174 256.811 46.6113C255.051 48.9591 252.528 50.7775 249.24 52.0665C245.999 53.3555 242.179 54 237.78 54Z" fill="url(#paint5_linear_33_23)"/>
<path d="M267.295 52.688V14.156H279.102V52.688H267.295ZM273.268 11.0486C271.925 11.0486 270.744 10.8184 269.726 10.3581C268.707 9.85166 267.897 9.18414 267.295 8.3555C266.739 7.48082 266.461 6.51407 266.461 5.45524C266.461 4.44245 266.739 3.52174 267.295 2.69309C267.897 1.86445 268.707 1.21995 269.726 0.759589C270.791 0.253196 271.971 0 273.268 0C274.518 0 275.653 0.253196 276.671 0.759589C277.69 1.21995 278.477 1.86445 279.033 2.69309C279.635 3.52174 279.936 4.44245 279.936 5.45524C279.936 6.51407 279.658 7.48082 279.102 8.3555C278.547 9.18414 277.736 9.85166 276.671 10.3581C275.653 10.8184 274.518 11.0486 273.268 11.0486Z" fill="url(#paint6_linear_33_23)"/>
<path d="M296.285 52.688V5.38619L308.092 3.03836V52.688H296.285ZM285.102 21.5448V12.844H320.109V21.5448H285.102Z" fill="url(#paint7_linear_33_23)"/>
<path d="M346.969 53.8619C342.014 53.8619 337.662 52.9642 333.911 51.1688C330.207 49.3274 327.336 46.7724 325.298 43.5038C323.307 40.2353 322.312 36.4834 322.312 32.2481C322.312 28.289 323.238 24.7212 325.09 21.5448C326.942 18.3223 329.581 15.7903 333.008 13.9488C336.481 12.1074 340.556 11.1867 345.232 11.1867C349.678 11.1867 353.451 11.9463 356.554 13.4655C359.656 14.9847 361.995 17.1944 363.569 20.0946C365.19 22.9488 366 26.3555 366 30.3146V34.5959H328.077V28.3811H357.526L356.137 30.867V29.6931C356.137 27.6675 355.72 25.9642 354.887 24.5831C354.053 23.156 352.826 22.0742 351.206 21.3376C349.631 20.601 347.733 20.2327 345.51 20.2327C343.01 20.2327 340.88 20.7161 339.12 21.6829C337.407 22.6036 336.11 23.8926 335.231 25.5499C334.351 27.2072 333.911 29.0946 333.911 31.2123L333.703 31.8338C333.749 34.4118 334.397 36.6675 335.647 38.601C336.898 40.4885 338.703 41.9386 341.065 42.9514C343.427 43.9642 346.274 44.4706 349.608 44.4706C352.525 44.4706 355.257 44.0563 357.804 43.2276C360.351 42.3529 362.643 41.156 364.68 39.6368V48.7519C362.504 50.3171 359.841 51.5601 356.693 52.4808C353.59 53.4015 350.349 53.8619 346.969 53.8619Z" fill="url(#paint8_linear_33_23)"/>
<defs>
<linearGradient id="paint0_linear_33_23" x1="244.762" y1="53.9999" x2="-31.6572" y2="-37.8925" gradientUnits="userSpaceOnUse">
<stop stop-color="#DB2C1D"/>
<stop offset="1" stop-color="#1501A1"/>
</linearGradient>
<linearGradient id="paint1_linear_33_23" x1="244.762" y1="53.9999" x2="-31.6572" y2="-37.8925" gradientUnits="userSpaceOnUse">
<stop stop-color="#DB2C1D"/>
<stop offset="1" stop-color="#1501A1"/>
</linearGradient>
<linearGradient id="paint2_linear_33_23" x1="244.762" y1="53.9999" x2="-31.6572" y2="-37.8925" gradientUnits="userSpaceOnUse">
<stop stop-color="#DB2C1D"/>
<stop offset="1" stop-color="#1501A1"/>
</linearGradient>
<linearGradient id="paint3_linear_33_23" x1="244.762" y1="53.9999" x2="-31.6572" y2="-37.8925" gradientUnits="userSpaceOnUse">
<stop stop-color="#DB2C1D"/>
<stop offset="1" stop-color="#1501A1"/>
</linearGradient>
<linearGradient id="paint4_linear_33_23" x1="244.762" y1="53.9999" x2="-31.6572" y2="-37.8925" gradientUnits="userSpaceOnUse">
<stop stop-color="#DB2C1D"/>
<stop offset="1" stop-color="#1501A1"/>
</linearGradient>
<linearGradient id="paint5_linear_33_23" x1="216.387" y1="0" x2="355.651" y2="73.5863" gradientUnits="userSpaceOnUse">
<stop stop-color="#1501A1"/>
<stop offset="1" stop-color="#051341"/>
</linearGradient>
<linearGradient id="paint6_linear_33_23" x1="216.387" y1="0" x2="355.651" y2="73.5863" gradientUnits="userSpaceOnUse">
<stop stop-color="#1501A1"/>
<stop offset="1" stop-color="#051341"/>
</linearGradient>
<linearGradient id="paint7_linear_33_23" x1="216.387" y1="0" x2="355.651" y2="73.5863" gradientUnits="userSpaceOnUse">
<stop stop-color="#1501A1"/>
<stop offset="1" stop-color="#051341"/>
</linearGradient>
<linearGradient id="paint8_linear_33_23" x1="216.387" y1="0" x2="355.651" y2="73.5863" gradientUnits="userSpaceOnUse">
<stop stop-color="#1501A1"/>
<stop offset="1" stop-color="#051341"/>
</linearGradient>
</defs>
</svg>
